<?xml version="1.0" encoding="UTF-8" standalone="no"?>
<!-- Created with Inkscape (http://www.inkscape.org/) -->
<svg xmlns:dc="http://purl.org/dc/elements/1.1/" xmlns:cc="http://creativecommons.org/ns#" xmlns:rdf="http://www.w3.org/1999/02/22-rdf-syntax-ns#" xmlns:svg="http://www.w3.org/2000/svg" xmlns="http://www.w3.org/2000/svg" xmlns:sodipodi="http://sodipodi.sourceforge.net/DTD/sodipodi-0.dtd" xmlns:inkscape="http://www.inkscape.org/namespaces/inkscape" width="460" height="204.00078" id="svg3825" version="1.1" inkscape:version="0.48.2 r9819" sodipodi:docname="cmc.svg">
  <defs id="defs3827"/>
  <sodipodi:namedview id="base" pagecolor="#ffffff" bordercolor="#666666" borderopacity="1.0" inkscape:pageopacity="0.0" inkscape:pageshadow="2" inkscape:zoom="1.2318236" inkscape:cx="409.30609" inkscape:cy="-26.375602" inkscape:document-units="px" inkscape:current-layer="layer1" showgrid="true" showborder="false" inkscape:showpageshadow="false" inkscape:window-width="1366" inkscape:window-height="746" inkscape:window-x="-8" inkscape:window-y="-8" inkscape:window-maximized="1" inkscape:snap-global="false" fit-margin-top="0" fit-margin-left="0" fit-margin-right="0" fit-margin-bottom="0">
    <inkscape:grid type="xygrid" id="grid3833" empspacing="5" visible="true" enabled="true" snapvisiblegridlinesonly="true" spacingx="10px" spacingy="10px"/>
  </sodipodi:namedview>
  <metadata id="metadata3830">
    <rdf:RDF>
      <cc:Work rdf:about="">
        <dc:format>image/svg+xml</dc:format>
        <dc:type rdf:resource="http://purl.org/dc/dcmitype/StillImage"/>
        <dc:title/>
      </cc:Work>
    </rdf:RDF>
  </metadata>
  <g inkscape:label="Layer 1" inkscape:groupmode="layer" id="layer1" transform="translate(1397.1793,-689.2017)">
    <g id="g5820" transform="translate(2.4354137,-234.61152)">
      <path style="fill:#7f7f7f" d="m -1169.6147,1127.8137 -230,0 0,-51 0,-51 58,0 c 31.9,0 58,0.1701 58,0.3779 0,0.2078 -0.7261,2.1203 -1.6136,4.25 -0.8875,2.1297 -8.3718,18.7221 -16.6317,36.8721 -8.2599,18.15 -16.5167,36.4875 -18.3485,40.75 l -3.3303,7.75 39.9327,0 39.9328,0 2.467,-5.25 c 1.3568,-2.8875 5.9272,-12.9 10.1563,-22.25 4.2292,-9.35 11.1655,-24.65 15.4142,-34 4.2486,-9.35 8.9691,-19.5875 10.49,-22.75 l 2.7652,-5.75 15.383,0 c 10.5428,0 15.3829,0.3469 15.3829,1.1026 0,0.6064 -2.2152,6.1189 -4.9227,12.25 -2.7075,6.1311 -6.3238,14.7474 -8.0362,19.1474 -1.7124,4.4 -4.2671,10.1684 -5.6771,12.8187 -2.2803,4.2861 -2.5216,5.7229 -2.1834,13 0.2444,5.2593 1.0417,9.5347 2.2324,11.9707 1.0187,2.0841 3.7948,5.95 6.1691,8.5907 2.7746,3.086 6.568,5.8409 10.6174,7.7107 l 6.3005,2.9092 50,0.3083 c 27.5,0.1696 51.3999,0.048 53.1108,-0.2692 2.8883,-0.5362 3.4913,-1.4522 8.4314,-12.8083 2.9263,-6.7269 7.2061,-16.2808 9.5107,-21.2308 2.3046,-4.95 5.6608,-12.15 7.4582,-16 1.7974,-3.85 4.1053,-8.9498 5.1285,-11.3329 1.0232,-2.3831 1.8604,-4.9706 1.8604,-5.75 0,-1.1937 -5.1228,-1.4171 -32.5,-1.4171 -17.875,0 -32.5,-0.2048 -32.5,-0.4551 0,-0.2503 1.8397,-4.6359 4.0883,-9.7456 2.2486,-5.1097 4.6111,-9.623 5.25,-10.0295 0.6389,-0.4065 34.1242,-0.746 74.4117,-0.7545 l 73.25,-0.015 0,51 0,51 -230,0 z m -108.1783,-24 c -14.7519,0 -26.8217,-0.2101 -26.8217,-0.4669 0,-0.2569 2.4154,-5.9944 5.3675,-12.75 2.9522,-6.7557 12.2212,-27.3581 20.598,-45.7831 8.3767,-18.425 16.1381,-35.525 17.2475,-38 1.1094,-2.475 3.7273,-8.10585 5.8174,-12.51301 2.0902,-4.40717 5.6314,-10.09327 7.8694,-12.63577 2.238,-2.5425 6.3269,-6.07158 9.0865,-7.84241 2.7596,-1.77082 7.7567,-4.07222 11.1047,-5.11423 5.4929,-1.7096 9.5548,-1.89456 41.6051,-1.89456 29.4508,0 35.4292,0.23119 34.9985,1.35341 -0.2856,0.74437 -4.917,10.86937 -10.2919,22.5 l -9.7726,21.14657 -18.6926,0 c -14.402,0 -18.9478,0.3075 -19.8045,1.3398 -0.6116,0.7368 -3.9806,7.8243 -7.4867,15.75 -3.5062,7.9256 -11.5276,25.6602 -17.8254,39.4102 -6.2978,13.75 -12.5141,27.3625 -13.814,30.25 l -2.3634,5.25 -26.8218,0 z m 161.3059,-0.071 c -38.2176,-0.058 -47.3456,-0.3333 -50.6084,-1.5275 -2.1895,-0.8015 -5.4904,-2.9072 -7.3354,-4.6796 -1.8449,-1.7723 -4.0626,-4.5724 -4.9281,-6.2224 -0.8783,-1.6743 -1.5728,-5.4305 -1.5717,-8.5 0,-4.68 1.0789,-7.8854 7.2252,-21.5 3.9727,-8.8 8.1564,-18.025 9.2971,-20.5 1.1408,-2.475 4.261,-9.4297 6.9339,-15.4548 2.6729,-6.0252 4.8598,-11.5377 4.8598,-12.25 0,-0.9369 -1.9364,-1.2952 -7,-1.2952 -3.85,0 -6.9747,-0.3375 -6.9438,-0.75 0.031,-0.4125 4.4737,-10.425 9.8729,-22.24998 l 9.8166,-21.5 8.0056,-0.28848 8.0055,-0.28848 3.6394,-7.96152 3.6393,-7.96152 27.9575,0 27.9575,0 -0.8791,2.25 c -0.4836,1.2375 -1.8224,4.42481 -2.9753,7.0829 -1.1529,2.6581 -2.0961,5.2456 -2.0961,5.75 0,0.52395 8.1451,0.9171 19,0.9171 10.45,0 19,0.29806 19,0.66237 0,0.3643 -2.3097,5.8768 -5.1326,12.25 -2.823,6.37319 -7.2992,16.20013 -9.9471,21.83761 l -4.8144,10.25 -19.0299,0 c -18.639,0 -19.0596,0.046 -20.478,2.25 -0.7965,1.2375 -5.5319,11.4023 -10.5231,22.5884 -4.9912,11.1861 -9.0749,20.7486 -9.0749,21.25 0,0.5301 13.5995,0.9116 32.5,0.9116 17.9859,0 32.5,0.3921 32.5,0.8779 0,0.4828 -0.7244,2.6115 -1.6097,4.7304 -0.8853,2.1189 -4.9757,11.2864 -9.0897,20.3721 -4.1141,9.0858 -7.9448,17.0821 -8.5128,17.7696 -0.8007,0.9693 -11.5056,1.2342 -47.6602,1.1796 z m -220.9865,-96.1719 -62.1411,0.2576 0,-42.00761 0,-42.00757 230,0 230,0 0,41.5 0,41.49998 -50,0 c -27.5,0 -50,-0.1913 -50,-0.425 0,-0.2338 4.7727,-10.905 10.606,-23.71381 5.8333,-12.80881 10.9972,-24.31754 11.4753,-25.57496 l 0.8692,-2.28621 -19.4753,0 c -10.9821,0 -19.4752,-0.39545 -19.4752,-0.90678 0,-0.49873 1.35,-3.91568 3,-7.59322 1.65,-3.67754 3,-6.86949 3,-7.09322 0,-0.22373 -18.3517,-0.40678 -40.7815,-0.40678 l -40.7815,0 -3.6079,7.94256 -3.608,7.94256 -44.3605,0.34175 c -42.7365,0.32924 -44.5737,0.42178 -50.181,2.5278 -3.2012,1.20232 -8.4469,3.78155 -11.657,5.73162 -3.2102,1.95006 -8.3401,6.24952 -11.3997,9.55434 -4.1603,4.49363 -7.0845,9.2175 -11.5968,18.73407 -3.3186,6.99891 -6.4185,13.40028 -6.8888,14.22528 -0.7431,1.3037 -8.9889,1.5337 -62.9962,1.7576 z" id="path5826" inkscape:connector-curvature="0"/>
      <path style="fill:#ca0f0f" d="m -1278.3647,1103.7984 c -13.8875,0.01 -25.25,-0.3803 -25.25,-0.8638 0,-0.4836 1.0888,-3.2961 2.4196,-6.25 1.3307,-2.954 5.6518,-12.5709 9.6023,-21.3709 3.9505,-8.8 8.303,-18.475 9.6721,-21.5 1.3692,-3.025 4.6601,-10.225 7.3133,-16 2.6532,-5.775 8.4746,-18.6 12.9365,-28.5 4.4619,-9.89998 9.715,-20.34112 11.6735,-23.20252 1.9585,-2.8614 5.5093,-6.79917 7.8908,-8.7506 2.3815,-1.95143 6.5298,-4.65296 9.2184,-6.0034 2.6887,-1.35044 7.5626,-2.88826 10.831,-3.41739 3.2684,-0.52912 20.1964,-1.01041 37.6177,-1.06953 17.4214,-0.0591 31.9041,0.26271 32.1837,0.71519 0.2797,0.45246 -1.5197,5.30143 -3.9986,10.77547 -2.4789,5.47404 -6.5477,14.2278 -9.0419,19.4528 -2.4941,5.22498 -4.9213,10.50278 -5.3936,11.72828 -0.8414,2.1832 -1.2465,2.2338 -20.0151,2.5 l -19.1562,0.2717 -6.9338,15 c -3.8136,8.25 -13.0579,28.5 -20.5429,45 -7.485,16.5 -14.0968,30.3306 -14.693,30.7347 -0.5961,0.4041 -12.4463,0.7416 -26.3338,0.75 z m 162.2559,-1.0749 c -25.8533,-0.05 -48.3559,-0.4864 -50.0059,-0.9707 -1.65,-0.4844 -4.7456,-2.3244 -6.8792,-4.0891 -2.1335,-1.7647 -4.7111,-5.0403 -5.728,-7.2792 -1.0169,-2.2389 -1.8588,-5.7816 -1.8708,-7.8726 -0.016,-2.7697 3.9148,-12.5929 14.478,-36.1812 7.975,-17.8086 14.5,-32.8602 14.5,-33.4481 0,-0.6567 -2.6993,-1.0689 -7,-1.0689 -3.85,0 -7,-0.4052 -7,-0.9004 0,-0.4953 1.8443,-4.8828 4.0986,-9.75 2.2542,-4.86727 5.1323,-11.09958 6.3958,-13.84958 1.2634,-2.75 3.709,-8.13267 5.4346,-11.96149 1.7255,-3.82882 3.6849,-7.30943 4.3542,-7.73469 0.6692,-0.42526 4.4029,-0.78009 8.2971,-0.78851 l 7.0803,-0.0153 3.5978,-8 3.5978,-8 27.0719,0 c 14.8895,0 27.0719,0.26207 27.0719,0.58239 0,0.32031 -1.35,3.65823 -3,7.41761 -1.65,3.75937 -3,7.0973 -3,7.41761 0,0.32032 8.55,0.58239 19,0.58239 15.0268,0 19,0.27477 19,1.31399 0,0.72269 -4.1067,10.28519 -9.1259,21.25 -5.0192,10.96478 -9.5743,20.49848 -10.1224,21.18598 -0.7334,0.9199 -6.0474,1.2571 -20.1241,1.2769 l -19.1276,0.027 -2.9596,6.7231 c -1.6278,3.6977 -4.6085,10.3231 -6.6238,14.7231 -2.0154,4.4 -5.296,11.5509 -7.2904,15.8909 -1.9944,4.3399 -3.6262,8.2774 -3.6262,8.75 0,0.4725 14.8434,0.8591 32.9854,0.8591 l 32.9854,0 -1.9254,4.75 c -1.059,2.6125 -4.8066,11.05 -8.3282,18.75 -3.5215,7.7 -7.0334,15.4625 -7.8041,17.25 l -1.4013,3.25 -47.0059,-0.09 z m -221.3648,-95.1522 -62.1411,0.2576 0,-42.00761 0,-42.00757 230,0 230,0 0,41.5 0,41.49998 -50,0 c -27.5,0 -50,-0.162 -50,-0.3601 0,-0.1981 1.8643,-4.3606 4.143,-9.25003 2.2786,-4.88942 7.4404,-16.31485 11.4705,-25.38985 l 7.3277,-16.5 -19.2206,-0.5 c -18.4659,-0.48037 -19.207,-0.5777 -18.8742,-2.47872 0.1905,-1.08829 1.1452,-3.56329 2.1216,-5.5 0.9765,-1.9367 2.0884,-4.53378 2.4711,-5.77128 l 0.6957,-2.25 -40.8489,0 -40.8489,0 -3.6079,7.94256 -3.608,7.94256 -44.3605,0.34175 c -42.7365,0.32924 -44.5737,0.42178 -50.181,2.5278 -3.2012,1.20232 -8.4469,3.78155 -11.657,5.73162 -3.2102,1.95006 -8.3401,6.24952 -11.3997,9.55434 -4.1603,4.49363 -7.0845,9.2175 -11.5968,18.73407 -3.3186,6.99891 -6.4185,13.40028 -6.8888,14.22528 -0.7431,1.3037 -8.9889,1.5337 -62.9962,1.7576 z" id="path5824" inkscape:connector-curvature="0"/>
      <path style="fill:#0e0d14" d="m -1278.3647,1103.7984 c -13.8875,0.01 -25.25,-0.3803 -25.25,-0.8638 0,-0.4836 1.0888,-3.2961 2.4196,-6.25 1.3307,-2.954 5.6518,-12.5709 9.6023,-21.3709 3.9505,-8.8 8.303,-18.475 9.6721,-21.5 1.3692,-3.025 4.6601,-10.225 7.3133,-16 2.6532,-5.775 8.4746,-18.6 12.9365,-28.5 4.4619,-9.89998 9.715,-20.34112 11.6735,-23.20252 1.9585,-2.8614 5.5093,-6.79917 7.8908,-8.7506 2.3815,-1.95143 6.5298,-4.65296 9.2184,-6.0034 2.6887,-1.35044 7.5626,-2.88826 10.831,-3.41739 3.2684,-0.52912 20.1964,-1.01041 37.6177,-1.06953 17.4214,-0.0591 31.9041,0.26271 32.1837,0.71519 0.2797,0.45246 -1.5197,5.30143 -3.9986,10.77547 -2.4789,5.47404 -6.5477,14.2278 -9.0419,19.4528 -2.4941,5.22498 -4.9213,10.50278 -5.3936,11.72828 -0.8414,2.1832 -1.2465,2.2338 -20.0151,2.5 l -19.1562,0.2717 -6.9338,15 c -3.8136,8.25 -13.0579,28.5 -20.5429,45 -7.485,16.5 -14.0968,30.3306 -14.693,30.7347 -0.5961,0.4041 -12.4463,0.7416 -26.3338,0.75 z m 162.2559,-1.0749 c -25.8533,-0.05 -48.3559,-0.4864 -50.0059,-0.9707 -1.65,-0.4844 -4.7456,-2.3244 -6.8792,-4.0891 -2.1335,-1.7647 -4.7111,-5.0403 -5.728,-7.2792 -1.0169,-2.2389 -1.8588,-5.7816 -1.8708,-7.8726 -0.016,-2.7697 3.9148,-12.5929 14.478,-36.1812 7.975,-17.8086 14.5,-32.8602 14.5,-33.4481 0,-0.6567 -2.6993,-1.0689 -7,-1.0689 -3.85,0 -7,-0.4052 -7,-0.9004 0,-0.4953 1.8443,-4.8828 4.0986,-9.75 2.2542,-4.86727 5.1323,-11.09958 6.3958,-13.84958 1.2634,-2.75 3.709,-8.13267 5.4346,-11.96149 1.7255,-3.82882 3.6849,-7.30943 4.3542,-7.73469 0.6692,-0.42526 4.4029,-0.78009 8.2971,-0.78851 l 7.0803,-0.0153 3.5978,-8 3.5978,-8 27.0719,0 c 14.8895,0 27.0719,0.26207 27.0719,0.58239 0,0.32031 -1.35,3.65823 -3,7.41761 -1.65,3.75937 -3,7.0973 -3,7.41761 0,0.32032 8.55,0.58239 19,0.58239 15.0268,0 19,0.27477 19,1.31399 0,0.72269 -4.1067,10.28519 -9.1259,21.25 -5.0192,10.96478 -9.5743,20.49848 -10.1224,21.18598 -0.7334,0.9199 -6.0474,1.2571 -20.1241,1.2769 l -19.1276,0.027 -2.9596,6.7231 c -1.6278,3.6977 -4.6085,10.3231 -6.6238,14.7231 -2.0154,4.4 -5.296,11.5509 -7.2904,15.8909 -1.9944,4.3399 -3.6262,8.2774 -3.6262,8.75 0,0.4725 14.8434,0.8591 32.9854,0.8591 l 32.9854,0 -1.9254,4.75 c -1.059,2.6125 -4.8066,11.05 -8.3282,18.75 -3.5215,7.7 -7.0334,15.4625 -7.8041,17.25 l -1.4013,3.25 -47.0059,-0.09 z" id="path5822" inkscape:connector-curvature="0"/>
    </g>
  </g>
</svg>