<?xml version="1.0" encoding="utf-8"?>
<!-- Generator: Adobe Illustrator 21.1.0, SVG Export Plug-In . SVG Version: 6.00 Build 0)  -->
<svg version="1.1" id="Layer_1" xmlns="http://www.w3.org/2000/svg" xmlns:xlink="http://www.w3.org/1999/xlink" x="0px" y="0px"
	 viewBox="0 0 9.8 23.9" style="enable-background:new 0 0 9.8 23.9;" xml:space="preserve">
<style type="text/css">
	.st0{fill:#FFFFFF;}
</style>
<g>
	<g>
		<path class="st0" d="M4.9,0C5.5,0,6,0.1,6.6,0.2c0.6,0.1,1.1,0.3,1.6,0.5C8.7,1,9,1.3,9.3,1.8c0.3,0.5,0.4,1,0.4,1.7
			c0,0.7-0.1,1.3-0.4,1.7S8.7,6.1,8.2,6.3c-0.5,0.3-1,0.4-1.6,0.5S5.5,7,4.9,7S3.8,7,3.2,6.9S2.1,6.6,1.6,6.3S0.7,5.7,0.4,5.3
			C0.2,4.8,0,4.2,0,3.5c0-0.7,0.1-1.3,0.4-1.7C0.7,1.3,1.1,1,1.6,0.7c0.5-0.3,1-0.4,1.6-0.5C3.8,0.1,4.3,0,4.9,0z M4.9,2
			C4.6,2,4.3,2,4,2c-0.3,0-0.7,0.1-1,0.2C2.7,2.3,2.4,2.5,2.2,2.7C2,2.9,1.8,3.2,1.8,3.5c0,0.4,0.1,0.6,0.3,0.8S2.7,4.7,3,4.8
			C3.3,4.9,3.6,5,4,5s0.6,0,0.9,0s0.5,0,0.9,0c0.3,0,0.7-0.1,1-0.2c0.3-0.1,0.6-0.3,0.8-0.5c0.2-0.2,0.3-0.5,0.3-0.8
			c0-0.4-0.1-0.6-0.3-0.8C7.4,2.5,7.1,2.3,6.8,2.2C6.5,2.1,6.1,2.1,5.8,2C5.4,2,5.1,2,4.9,2z"/>
	</g>
	<g>
		<path class="st0" d="M7.4,22l-1.7-1.9L7,19l2.6,3.1v1.9H0.2V22L7.4,22L7.4,22z"/>
	</g>
</g>
</svg>
