<?xml version="1.0" encoding="utf-8"?>
<!-- Generator: Adobe Illustrator 21.1.0, SVG Export Plug-In . SVG Version: 6.00 Build 0)  -->
<svg version="1.1" id="Layer_1" xmlns="http://www.w3.org/2000/svg" xmlns:xlink="http://www.w3.org/1999/xlink" x="0px" y="0px"
	 viewBox="0 0 12 77.4" style="enable-background:new 0 0 12 77.4;" xml:space="preserve">
<style type="text/css">
	.st0{fill:#FFFFFF;}
</style>
<g>
	<g>
		<path class="st0" d="M2.3,73.3v-1.7l9.5-4.1v2.4l-2,0.8v3.7l2,0.8v2.3L2.3,73.3z M5.1,72.5L8,73.7v-2.3L5.1,72.5z"/>
	</g>
	<g>
		<path class="st0" d="M2.3,57.6v-2.4l6.2-2.3v0l-6.2-2.4v-2.2l9.5,3.9v1.7L2.3,57.6z"/>
	</g>
	<g>
		<path class="st0" d="M1.3,33.3v4.5H0v-4.5H1.3z M2.3,36.6v-2.1h9.5v2.1H2.3z"/>
	</g>
	<g>
		<path class="st0" d="M4.8,15.7c-0.2,0.2-0.4,0.5-0.6,0.8c-0.1,0.3-0.2,0.6-0.2,1s0.1,0.8,0.2,1.1c0.2,0.3,0.4,0.6,0.6,0.9
			c0.3,0.2,0.6,0.4,1,0.6c0.4,0.1,0.8,0.2,1.2,0.2c0.4,0,0.9-0.1,1.2-0.2c0.4-0.1,0.7-0.3,1-0.6c0.3-0.2,0.5-0.5,0.6-0.9
			c0.2-0.3,0.2-0.7,0.2-1c0-0.4-0.1-0.8-0.3-1.1c-0.2-0.3-0.4-0.6-0.7-0.8l1.3-1.7c0.6,0.4,1,0.9,1.2,1.5c0.3,0.6,0.4,1.2,0.4,1.9
			c0,0.7-0.1,1.4-0.3,2c-0.2,0.6-0.6,1.2-1,1.6c-0.4,0.5-1,0.8-1.6,1.1c-0.6,0.3-1.3,0.4-2.1,0.4S5.6,22.3,5,22
			c-0.6-0.3-1.1-0.6-1.6-1.1c-0.4-0.5-0.8-1-1-1.6c-0.2-0.6-0.3-1.3-0.3-2c0-0.3,0-0.5,0.1-0.8c0-0.3,0.1-0.6,0.2-0.9
			c0.1-0.3,0.3-0.5,0.4-0.8c0.2-0.3,0.4-0.5,0.7-0.7L4.8,15.7z"/>
	</g>
	<g>
		<path class="st0" d="M2.3,2.1V0h9.5v2.1H2.3z"/>
	</g>
</g>
</svg>
