<?xml version="1.0" encoding="utf-8"?>
<!-- Generator: Adobe Illustrator 21.1.0, SVG Export Plug-In . SVG Version: 6.00 Build 0)  -->
<svg version="1.1" id="Layer_1" xmlns="http://www.w3.org/2000/svg" xmlns:xlink="http://www.w3.org/1999/xlink" x="0px" y="0px"
	 viewBox="0 0 80 20.8" style="enable-background:new 0 0 80 20.8;" xml:space="preserve">
<style type="text/css">
	.st0{fill:#54BA5E;}
	.st1{fill:#010101;}
</style>
<g>
	<g>
		<path class="st0" d="M69.6,20.8H10.4C4.7,20.8,0,16.1,0,10.4C0,4.7,4.7,0,10.4,0h59.2C75.3,0,80,4.7,80,10.4
			C80,16.1,75.3,20.8,69.6,20.8z M10.4,1C5.2,1,1,5.2,1,10.4c0,5.2,4.2,9.4,9.4,9.4h59.2c5.2,0,9.4-4.2,9.4-9.4S74.7,1,69.6,1
			C69.6,1,10.4,1,10.4,1z"/>
	</g>
	<g>
		<g>
			<path class="st0" d="M21.3,7.6h4.3v1.3h-2.9v1.3h2.7v1.3h-2.7V14h-1.4C21.3,14,21.3,7.6,21.3,7.6z"/>
		</g>
		<g>
			<path class="st0" d="M28,10.8c0-0.5,0.1-1,0.3-1.4C28.5,9,28.7,8.6,29,8.3c0.3-0.3,0.7-0.5,1.1-0.7c0.4-0.2,0.9-0.2,1.4-0.2
				s1,0.1,1.4,0.2c0.4,0.2,0.8,0.4,1.1,0.7s0.5,0.6,0.7,1.1s0.3,0.9,0.3,1.4s-0.1,1-0.3,1.4c-0.2,0.4-0.4,0.8-0.7,1.1
				s-0.7,0.5-1.1,0.7s-0.9,0.2-1.4,0.2s-1-0.1-1.4-0.2c-0.4-0.2-0.8-0.4-1.1-0.7c-0.3-0.3-0.5-0.6-0.7-1.1
				C28.1,11.8,28,11.3,28,10.8z M29.5,10.8c0,0.3,0,0.6,0.1,0.8s0.2,0.5,0.4,0.6c0.2,0.2,0.4,0.3,0.6,0.4s0.5,0.2,0.8,0.2
				s0.6-0.1,0.8-0.2s0.5-0.2,0.6-0.4c0.2-0.2,0.3-0.4,0.4-0.6c0.1-0.2,0.1-0.5,0.1-0.8c0-0.3,0-0.6-0.1-0.8
				c-0.1-0.3-0.2-0.5-0.4-0.7c-0.2-0.2-0.4-0.3-0.6-0.4s-0.5-0.2-0.8-0.2s-0.6,0.1-0.8,0.2S30.2,9.1,30,9.3
				c-0.2,0.2-0.3,0.4-0.4,0.7S29.5,10.5,29.5,10.8z"/>
		</g>
		<g>
			<path class="st0" d="M37.7,7.6h1.4v5.1h2.6V14h-4V7.6z"/>
		</g>
		<g>
			<path class="st0" d="M44.3,7.6h1.4v5.1h2.6V14h-4V7.6z"/>
		</g>
		<g>
			<path class="st0" d="M50.6,10.8c0-0.5,0.1-1,0.3-1.4s0.4-0.8,0.7-1.1c0.3-0.3,0.7-0.5,1.1-0.7c0.4-0.2,0.9-0.2,1.4-0.2
				s1,0.1,1.4,0.2c0.4,0.2,0.8,0.4,1.1,0.7S57,9,57.2,9.4s0.3,0.9,0.3,1.4s-0.1,1-0.3,1.4c-0.2,0.4-0.4,0.8-0.7,1.1
				s-0.7,0.5-1.1,0.7s-0.9,0.2-1.4,0.2s-1-0.1-1.4-0.2s-0.8-0.4-1.1-0.7c-0.3-0.3-0.5-0.6-0.7-1.1C50.7,11.8,50.6,11.3,50.6,10.8z
				 M52,10.8c0,0.3,0,0.6,0.1,0.8s0.2,0.5,0.4,0.6c0.2,0.2,0.4,0.3,0.6,0.4s0.5,0.2,0.8,0.2s0.6-0.1,0.8-0.2s0.5-0.2,0.6-0.4
				c0.2-0.2,0.3-0.4,0.4-0.6c0.1-0.2,0.1-0.5,0.1-0.8c0-0.3,0-0.6-0.1-0.8c-0.1-0.3-0.2-0.5-0.4-0.7c-0.2-0.2-0.4-0.3-0.6-0.4
				S54.3,8.7,54,8.7s-0.6,0.1-0.8,0.2s-0.5,0.2-0.6,0.4c-0.2,0.2-0.3,0.4-0.4,0.7S52,10.5,52,10.8z"/>
		</g>
		<g>
			<path class="st0" d="M59.5,7.6h1.5l1,4.1h0l1.3-4.1h1.3l1.3,4.2h0l1.1-4.2h1.4L66.7,14h-1.3l-1.4-4.4h0L62.6,14h-1.2L59.5,7.6z"
				/>
		</g>
	</g>
	<g>
		<g>
			<circle class="st0" cx="10.4" cy="10.4" r="6.1"/>
		</g>
		<g>
			<g>
				<path class="st1" d="M7.2,7.7C6.8,7.8,6.2,7.8,6.1,8.4c0,0.2,0.1,0.4,0.2,0.5C6.5,9,6.7,9.1,6.9,9c0.3,0,0.6-0.1,0.9-0.2
					c0.3-0.1,0.6-0.1,0.9-0.1c1.2-0.1,2.5,0,3.7,0.4c0.3,0.1,0.6,0.2,0.9,0.3c0.3,0.1,0.5,0.2,0.8,0.3c0.2,0.1,0.4,0.1,0.6-0.1
					c0.2-0.1,0.3-0.3,0.2-0.5c0-0.2-0.1-0.4-0.3-0.5c-0.2-0.1-0.4-0.2-0.7-0.3C13.5,8.1,13,8,12.5,7.8C9.8,7.2,7.7,7.6,7.2,7.7z
					 M7.5,9.8C7.3,9.9,7.2,9.9,7,9.9C6.9,9.9,6.8,10,6.7,10c-0.2,0.1-0.2,0.4-0.1,0.6c0.1,0.1,0.1,0.2,0.2,0.3c0.1,0.1,0.2,0,0.4,0
					c0.3-0.1,0.6-0.1,0.9-0.2c0.6-0.1,1.2-0.1,1.8-0.1c0.6,0,1.2,0.1,1.7,0.3c0.6,0.2,1.1,0.4,1.6,0.7c0.2,0.1,0.4,0.1,0.6,0
					c0.2-0.1,0.2-0.4,0.1-0.6c-0.1-0.2-0.4-0.4-0.6-0.5c-0.3-0.1-0.5-0.3-0.8-0.4C10,9.2,8.1,9.7,7.5,9.8z M7.6,11.8
					c-0.2,0-0.5,0-0.7,0.2c-0.1,0.1-0.1,0.4,0,0.5c0.1,0.2,0.3,0.2,0.5,0.1c0.1,0,0.3-0.1,0.4-0.1c0.2,0,0.3-0.1,0.5-0.1
					c0.6-0.1,1.2-0.1,1.8-0.1c0.6,0.1,1.2,0.2,1.8,0.5c0.3,0.1,0.5,0.3,0.8,0.4c0.2,0.1,0.4,0,0.5-0.2c0.1-0.2,0-0.4-0.2-0.6
					c-0.2-0.2-0.5-0.3-0.8-0.4c-0.5-0.2-1.1-0.4-1.6-0.5C9.1,11.5,8.2,11.7,7.6,11.8z"/>
			</g>
		</g>
	</g>
</g>
</svg>
